<svg xmlns="http://www.w3.org/2000/svg" xmlns:xlink="http://www.w3.org/1999/xlink" width="500" zoomAndPan="magnify" viewBox="0 0 375 374.999991" height="500" preserveAspectRatio="xMidYMid meet" version="1.0"><defs><g/></defs><g fill="#004aad" fill-opacity="1"><g transform="translate(146.027858, 194.572437)"><g><path d="M 85.40625 3.25 C 83.769531 8.914062 81.421875 13.164062 78.359375 16 C 74.703125 19.363281 69.664062 21.046875 63.25 21.046875 C 59.8125 21.046875 56.453125 20.519531 53.171875 19.46875 C 49.890625 18.425781 45.75 16.785156 40.75 14.546875 C 35.226562 12.160156 30.710938 10.367188 27.203125 9.171875 L 24.515625 8.390625 C 21.304688 9.515625 18.207031 10.078125 15.21875 10.078125 C 11.789062 10.078125 10.078125 9.328125 10.078125 7.828125 C 10.078125 6.265625 12.09375 5.484375 16.125 5.484375 C 18.726562 5.484375 21.523438 5.78125 24.515625 6.375 C 26.898438 5.707031 29.660156 4.664062 32.796875 3.25 C 34.734375 2.351562 36.1875 1.71875 37.15625 1.34375 C 30.820312 0.75 25.320312 -1.222656 20.65625 -4.578125 C 15.988281 -7.941406 12.367188 -12.550781 9.796875 -18.40625 C 7.222656 -24.269531 5.9375 -31.117188 5.9375 -38.953125 C 5.9375 -47.160156 7.445312 -54.4375 10.46875 -60.78125 C 13.488281 -67.125 17.703125 -72.046875 23.109375 -75.546875 C 28.523438 -79.054688 34.664062 -80.8125 41.53125 -80.8125 C 48.613281 -80.8125 54.820312 -79.207031 60.15625 -76 C 65.5 -72.789062 69.644531 -68.144531 72.59375 -62.0625 C 75.539062 -55.988281 77.015625 -48.734375 77.015625 -40.296875 C 77.015625 -32.535156 75.671875 -25.613281 72.984375 -19.53125 C 70.296875 -13.445312 66.523438 -8.59375 61.671875 -4.96875 C 56.828125 -1.351562 51.269531 0.75 45 1.34375 L 45 1.453125 C 43.207031 1.679688 41.65625 2 40.34375 2.40625 C 39.039062 2.8125 37.304688 3.460938 35.140625 4.359375 C 32.460938 5.554688 30.226562 6.414062 28.4375 6.9375 C 36.71875 8.582031 43.75 9.890625 49.53125 10.859375 C 55.3125 11.828125 60.109375 12.3125 63.921875 12.3125 C 69.210938 12.3125 73.40625 11.546875 76.5 10.015625 C 79.601562 8.484375 82.015625 6.003906 83.734375 2.578125 Z M 17.125 -39.40625 C 17.125 -31.644531 18.222656 -24.816406 20.421875 -18.921875 C 22.628906 -13.023438 25.597656 -8.472656 29.328125 -5.265625 C 33.054688 -2.054688 37.234375 -0.453125 41.859375 -0.453125 C 46.640625 -0.453125 50.835938 -2.109375 54.453125 -5.421875 C 58.078125 -8.742188 60.875 -13.390625 62.84375 -19.359375 C 64.820312 -25.328125 65.8125 -32.15625 65.8125 -39.84375 C 65.8125 -47.601562 64.710938 -54.429688 62.515625 -60.328125 C 60.316406 -66.222656 57.347656 -70.773438 53.609375 -73.984375 C 49.878906 -77.191406 45.703125 -78.796875 41.078125 -78.796875 C 36.304688 -78.796875 32.109375 -77.132812 28.484375 -73.8125 C 24.867188 -70.5 22.070312 -65.859375 20.09375 -59.890625 C 18.113281 -53.921875 17.125 -47.09375 17.125 -39.40625 Z M 17.125 -39.40625 "/></g></g></g><g fill="#737373" fill-opacity="1"><g transform="translate(162.711541, 211.447436)"><g><path d="M -3.046875 25.703125 C 4.054688 25.492188 9.304688 22.851562 12.703125 17.78125 C 16.097656 12.71875 17.796875 4.15625 17.796875 -7.90625 L 17.796875 -91.546875 C 17.796875 -95.398438 17.488281 -98.1875 16.875 -99.90625 C 16.269531 -101.632812 15.128906 -102.800781 13.453125 -103.40625 C 11.785156 -104.019531 9.125 -104.425781 5.46875 -104.625 L 5.46875 -107.671875 C 9.726562 -107.367188 16.117188 -107.21875 24.640625 -107.21875 C 32.953125 -107.21875 39.488281 -107.367188 44.25 -107.671875 L 44.25 -104.625 C 40.601562 -104.425781 37.941406 -104.019531 36.265625 -103.40625 C 34.597656 -102.800781 33.457031 -101.632812 32.84375 -99.90625 C 32.238281 -98.1875 31.9375 -95.398438 31.9375 -91.546875 L 31.9375 -35.890625 C 31.9375 -27.273438 31.785156 -19.644531 31.484375 -13 C 31.179688 -6.363281 30.46875 -0.765625 29.34375 3.796875 C 27.519531 11.203125 23.796875 17.1875 18.171875 21.75 C 12.546875 26.3125 5.472656 28.59375 -3.046875 28.59375 Z M -3.046875 25.703125 "/></g></g></g><g fill="#004aad" fill-opacity="1"><g transform="translate(108.832548, 261.53928)"><g><path d="M 8.816406 -15.089844 L 8.816406 -4.203125 C 8.816406 -1.832031 7.5 -0.28125 5.152344 -0.28125 C 3.46875 -0.28125 2.089844 -1.054688 1.59375 -2.285156 C 1.722656 -2.261719 1.832031 -2.242188 1.960938 -2.242188 C 2.609375 -2.242188 3.082031 -2.714844 3.082031 -3.363281 C 3.082031 -4.03125 2.609375 -4.503906 1.960938 -4.503906 C 1.273438 -4.503906 0.777344 -4.03125 0.777344 -3.363281 C 0.777344 -1.292969 2.800781 0.214844 5.582031 0.214844 C 8.535156 0.214844 10.734375 -1.59375 10.734375 -4.808594 L 10.734375 -15.089844 Z M 8.816406 -15.089844 "/></g></g></g><g fill="#004aad" fill-opacity="1"><g transform="translate(121.482891, 261.53928)"><g><path d="M 8.492188 0.214844 C 12.222656 0.214844 14.484375 -2.089844 14.484375 -5.605469 L 14.484375 -15.089844 L 13.96875 -15.089844 L 13.96875 -5.625 C 13.96875 -2.5 12.050781 -0.472656 8.96875 -0.472656 C 5.882812 -0.472656 3.835938 -2.5 3.835938 -5.625 L 3.835938 -15.089844 L 1.917969 -15.089844 L 1.917969 -5.972656 C 1.917969 -2.242188 4.632812 0.214844 8.492188 0.214844 Z M 8.492188 0.214844 "/></g></g></g><g fill="#004aad" fill-opacity="1"><g transform="translate(137.883075, 261.53928)"><g><path d="M 7.285156 -8.363281 C 5.152344 -9.203125 2.996094 -10.085938 2.996094 -11.941406 C 2.996094 -13.578125 4.675781 -14.828125 6.917969 -14.828125 C 8.644531 -14.828125 10.042969 -14.140625 10.625 -13.128906 L 10.539062 -13.128906 C 9.894531 -13.128906 9.417969 -12.675781 9.417969 -12.050781 C 9.417969 -11.425781 9.894531 -10.992188 10.539062 -10.992188 C 11.121094 -10.992188 11.574219 -11.425781 11.574219 -12.050781 C 11.574219 -13.902344 9.460938 -15.304688 6.726562 -15.304688 C 3.730469 -15.304688 1.507812 -13.621094 1.507812 -11.230469 C 1.507812 -8.621094 4.136719 -7.566406 6.316406 -6.683594 C 8.621094 -5.777344 10.625 -4.9375 10.625 -3.125 C 10.625 -1.445312 8.878906 -0.257812 6.421875 -0.257812 C 4.417969 -0.257812 2.757812 -1.035156 2.132812 -2.199219 L 2.285156 -2.199219 C 2.867188 -2.199219 3.320312 -2.652344 3.320312 -3.277344 C 3.320312 -3.902344 2.867188 -4.332031 2.285156 -4.332031 C 1.636719 -4.332031 1.164062 -3.902344 1.164062 -3.277344 C 1.164062 -1.292969 3.601562 0.214844 6.683594 0.214844 C 9.871094 0.214844 12.15625 -1.402344 12.15625 -3.921875 C 12.15625 -6.488281 9.785156 -7.414062 7.285156 -8.363281 Z M 7.285156 -8.363281 "/></g></g></g><g fill="#004aad" fill-opacity="1"><g transform="translate(151.050634, 261.53928)"><g><path d="M 12.675781 -15.089844 L 0.582031 -15.089844 L 0.582031 -14.65625 L 5.691406 -14.65625 L 5.691406 0 L 7.609375 0 L 7.609375 -14.65625 L 12.675781 -14.65625 Z M 12.675781 -15.089844 "/></g></g></g><g fill="#004aad" fill-opacity="1"><g transform="translate(164.304391, 261.53928)"><g><path d="M 2.070312 0 L 3.988281 0 L 3.988281 -15.089844 L 2.070312 -15.089844 Z M 2.070312 0 "/></g></g></g><g fill="#004aad" fill-opacity="1"><g transform="translate(170.33862, 261.53928)"><g><path d="M 13.96875 -15.089844 L 13.96875 -2.585938 L 3.6875 -15.089844 L 2.070312 -15.089844 L 2.070312 0 L 2.585938 0 L 2.585938 -13.535156 L 13.753906 0 L 14.484375 0 L 14.484375 -15.089844 Z M 13.96875 -15.089844 "/></g></g></g><g fill="#004aad" fill-opacity="1"><g transform="translate(186.86811, 261.53928)"><g/></g></g><g fill="#004aad" fill-opacity="1"><g transform="translate(192.665286, 261.53928)"><g><path d="M 16.855469 0.324219 C 16.230469 0.324219 15.777344 0.753906 15.777344 1.378906 C 15.777344 2.003906 16.230469 2.4375 16.878906 2.4375 C 17.007812 2.4375 17.136719 2.414062 17.242188 2.371094 C 16.855469 3.082031 15.992188 3.511719 15.003906 3.511719 C 13.558594 3.511719 12.242188 2.609375 10.886719 1.679688 C 10.085938 1.140625 9.269531 0.582031 8.429688 0.195312 C 8.578125 0.214844 8.75 0.214844 8.921875 0.214844 C 13.429688 0.214844 16.792969 -3.125 16.792969 -7.542969 C 16.792969 -11.964844 13.429688 -15.304688 8.921875 -15.304688 C 4.441406 -15.304688 1.078125 -11.964844 1.078125 -7.542969 C 1.078125 -4.117188 3.082031 -1.359375 6.078125 -0.28125 C 4.503906 -0.171875 3.253906 0.796875 3.253906 2.089844 C 3.253906 2.695312 3.707031 3.148438 4.355469 3.148438 C 4.9375 3.148438 5.390625 2.695312 5.390625 2.089844 C 5.390625 1.464844 4.9375 1.035156 4.355469 1.035156 L 4.226562 1.035156 C 4.632812 0.515625 5.300781 0.195312 6.078125 0.195312 C 7.5 0.195312 8.730469 1.292969 10.042969 2.414062 C 11.425781 3.621094 12.867188 4.871094 14.59375 4.871094 C 16.445312 4.871094 17.890625 3.40625 17.890625 1.378906 C 17.890625 0.777344 17.460938 0.324219 16.855469 0.324219 Z M 3.082031 -7.542969 C 3.082031 -11.964844 5.390625 -14.871094 8.921875 -14.871094 C 12.480469 -14.871094 14.785156 -11.964844 14.785156 -7.542969 C 14.785156 -3.125 12.480469 -0.214844 8.921875 -0.214844 C 5.390625 -0.214844 3.082031 -3.125 3.082031 -7.542969 Z M 3.082031 -7.542969 "/></g></g></g><g fill="#004aad" fill-opacity="1"><g transform="translate(210.660227, 261.53928)"><g><path d="M 8.492188 0.214844 C 12.222656 0.214844 14.484375 -2.089844 14.484375 -5.605469 L 14.484375 -15.089844 L 13.96875 -15.089844 L 13.96875 -5.625 C 13.96875 -2.5 12.050781 -0.472656 8.96875 -0.472656 C 5.882812 -0.472656 3.835938 -2.5 3.835938 -5.625 L 3.835938 -15.089844 L 1.917969 -15.089844 L 1.917969 -5.972656 C 1.917969 -2.242188 4.632812 0.214844 8.492188 0.214844 Z M 8.492188 0.214844 "/></g></g></g><g fill="#004aad" fill-opacity="1"><g transform="translate(227.060411, 261.53928)"><g><path d="M 2.070312 0 L 3.988281 0 L 3.988281 -15.089844 L 2.070312 -15.089844 Z M 2.070312 0 "/></g></g></g><g fill="#004aad" fill-opacity="1"><g transform="translate(233.09464, 261.53928)"><g><path d="M 13.96875 -15.089844 L 13.96875 -2.585938 L 3.6875 -15.089844 L 2.070312 -15.089844 L 2.070312 0 L 2.585938 0 L 2.585938 -13.535156 L 13.753906 0 L 14.484375 0 L 14.484375 -15.089844 Z M 13.96875 -15.089844 "/></g></g></g><g fill="#004aad" fill-opacity="1"><g transform="translate(249.62413, 261.53928)"><g><path d="M 13.96875 -15.089844 L 13.96875 -2.585938 L 3.6875 -15.089844 L 2.070312 -15.089844 L 2.070312 0 L 2.585938 0 L 2.585938 -13.535156 L 13.753906 0 L 14.484375 0 L 14.484375 -15.089844 Z M 13.96875 -15.089844 "/></g></g></g><g fill="#737373" fill-opacity="1"><g transform="translate(126.874385, 279.1646)"><g><path d="M 4.300781 0.121094 C 6.113281 0.121094 7.6875 -0.402344 7.6875 -2.15625 C 7.6875 -3.921875 5.96875 -4.289062 4.203125 -4.882812 C 3.203125 -5.214844 2.351562 -5.503906 2.351562 -6.320312 C 2.351562 -7.089844 2.875 -7.539062 4.09375 -7.539062 C 5.480469 -7.539062 6.296875 -7.039062 5.675781 -5.53125 L 7.257812 -5.285156 C 7.894531 -7.417969 5.980469 -8.160156 4.082031 -8.160156 C 2.230469 -8.160156 0.765625 -7.539062 0.765625 -6.015625 C 0.765625 -4.421875 2.300781 -3.984375 3.859375 -3.445312 C 5.101562 -3.019531 6.101562 -2.839844 6.101562 -1.828125 C 6.101562 -1 5.613281 -0.5 4.324219 -0.5 C 2.851562 -0.5 1.546875 -0.949219 2.179688 -2.984375 L 0.597656 -3.226562 C -0.0351562 -0.585938 2.214844 0.121094 4.300781 0.121094 Z M 4.300781 0.121094 "/></g></g></g><g fill="#737373" fill-opacity="1"><g transform="translate(134.92259, 279.1646)"><g><path d="M 3.800781 0.121094 C 6.101562 0.121094 7.101562 -1.414062 7.101562 -3.046875 C 7.101562 -4.675781 6.101562 -6.210938 3.800781 -6.210938 C 1.484375 -6.210938 0.488281 -4.675781 0.488281 -3.046875 C 0.488281 -1.414062 1.484375 0.121094 3.800781 0.121094 Z M 4.09375 -0.511719 C 2.875 -0.390625 2.253906 -1.277344 2.082031 -2.875 C 1.914062 -4.46875 2.351562 -5.457031 3.496094 -5.578125 C 4.714844 -5.699219 5.335938 -4.8125 5.503906 -3.214844 C 5.675781 -1.621094 5.238281 -0.632812 4.09375 -0.511719 Z M 4.09375 -0.511719 "/></g></g></g><g fill="#737373" fill-opacity="1"><g transform="translate(142.508112, 279.1646)"><g><path d="M 0.902344 0 L 3.703125 0 L 3.703125 -0.378906 C 3.265625 -0.378906 3.09375 -0.632812 3.09375 -1.460938 L 3.09375 -5.46875 L 4.480469 -5.46875 C 5.101562 -5.46875 5.101562 -5.675781 5.101562 -6.089844 L 3.09375 -6.089844 C 3.09375 -7.394531 3.15625 -8.269531 3.957031 -8.269531 C 4.457031 -8.269531 4.714844 -7.78125 3.984375 -6.980469 L 5.566406 -6.734375 C 5.992188 -7.929688 5.46875 -8.890625 3.789062 -8.890625 C 2.851562 -8.890625 1.511719 -8.453125 1.511719 -6.625 L 1.511719 -6.089844 L 0.488281 -6.089844 L 0.488281 -5.46875 L 1.511719 -5.46875 L 1.511719 -1.460938 C 1.511719 -0.632812 1.339844 -0.378906 0.902344 -0.378906 Z M 0.902344 0 "/></g></g></g><g fill="#737373" fill-opacity="1"><g transform="translate(148.352494, 279.1646)"><g><path d="M 3.421875 0.121094 C 4.445312 0.121094 5.019531 -0.28125 5.199219 -1.011719 L 3.996094 -1.21875 C 3.96875 -0.695312 3.824219 -0.5 3.496094 -0.5 C 2.984375 -0.5 2.984375 -1.109375 2.984375 -2.007812 L 2.984375 -5.46875 L 4.191406 -5.46875 C 4.8125 -5.46875 4.8125 -5.675781 4.8125 -6.089844 L 2.984375 -6.089844 L 2.984375 -8.039062 L 1.863281 -8.039062 C 1.863281 -6.394531 1.484375 -6.175781 0.488281 -6.089844 L 0.488281 -5.46875 L 1.402344 -5.46875 L 1.402344 -1.828125 C 1.402344 -0.207031 2.421875 0.121094 3.421875 0.121094 Z M 3.421875 0.121094 "/></g></g></g><g fill="#737373" fill-opacity="1"><g transform="translate(153.916829, 279.1646)"><g><path d="M 2.875 0 L 4.53125 0 L 5.871094 -3.886719 L 7.027344 0 L 8.695312 0 L 10.230469 -4.703125 C 10.488281 -5.492188 10.902344 -5.710938 11.425781 -5.710938 L 11.425781 -6.089844 L 8.855469 -6.089844 L 8.855469 -5.710938 C 9.695312 -5.710938 9.839844 -5.492188 9.585938 -4.703125 L 8.355469 -0.949219 L 6.625 -6.089844 L 5.96875 -6.089844 L 4.214844 -0.949219 L 2.984375 -4.703125 C 2.726562 -5.492188 2.875 -5.710938 3.703125 -5.710938 L 3.703125 -6.089844 L 0.121094 -6.089844 L 0.121094 -5.710938 C 0.644531 -5.710938 1.058594 -5.492188 1.316406 -4.703125 Z M 2.875 0 "/></g></g></g><g fill="#737373" fill-opacity="1"><g transform="translate(165.459488, 279.1646)"><g><path d="M 2.449219 0.121094 C 3.582031 0.121094 4.359375 -0.351562 4.726562 -0.972656 L 4.824219 -0.972656 L 4.835938 -0.667969 C 4.957031 -0.132812 5.480469 0 5.933594 0 C 6.359375 0 6.796875 -0.144531 7.015625 -0.449219 L 7.015625 -0.914062 C 6.566406 -0.667969 6.40625 -0.828125 6.40625 -1.511719 L 6.40625 -3.214844 C 6.40625 -5.359375 5.664062 -6.210938 3.679688 -6.210938 C 1.5 -6.210938 0.511719 -5.066406 0.878906 -3.726562 L 2.375 -4.054688 C 2.007812 -4.980469 2.484375 -5.589844 3.484375 -5.589844 C 4.507812 -5.589844 4.75 -5.054688 4.8125 -3.824219 C 3.070312 -3.582031 0.488281 -3.15625 0.488281 -1.402344 C 0.488281 -0.390625 1.15625 0.121094 2.449219 0.121094 Z M 2.996094 -0.5 C 2.328125 -0.5 2.070312 -0.839844 2.070312 -1.484375 C 2.070312 -2.496094 3.347656 -3.03125 4.824219 -3.214844 L 4.824219 -2.449219 C 4.824219 -1.449219 4.082031 -0.5 2.996094 -0.5 Z M 2.996094 -0.5 "/></g></g></g><g fill="#737373" fill-opacity="1"><g transform="translate(172.716266, 279.1646)"><g><path d="M 0.488281 0 L 3.289062 0 L 3.289062 -0.378906 C 2.851562 -0.378906 2.679688 -0.632812 2.679688 -1.460938 L 2.679688 -2.191406 C 2.679688 -3.859375 3.484375 -5.589844 4.628906 -5.589844 C 5.285156 -5.589844 5.515625 -5.054688 4.859375 -3.542969 L 6.441406 -3.300781 C 6.992188 -5.273438 6.578125 -6.210938 5.214844 -6.210938 C 3.8125 -6.210938 3.019531 -5.117188 2.777344 -4.359375 L 2.679688 -4.359375 L 2.679688 -5.03125 C 2.679688 -6.015625 2.253906 -6.089844 1.304688 -6.089844 L 0.488281 -6.089844 L 0.488281 -5.710938 C 0.925781 -5.710938 1.097656 -5.457031 1.097656 -4.628906 L 1.097656 -1.460938 C 1.097656 -0.632812 0.925781 -0.378906 0.488281 -0.378906 Z M 0.488281 0 "/></g></g></g><g fill="#737373" fill-opacity="1"><g transform="translate(179.753879, 279.1646)"><g><path d="M 3.75 0.121094 C 5.554688 0.121094 6.492188 -0.972656 6.371094 -2.300781 L 4.785156 -1.972656 C 4.945312 -0.816406 4.386719 -0.5 3.703125 -0.5 C 2.632812 -0.5 2.09375 -1.460938 2.070312 -2.65625 L 2.070312 -2.777344 C 3.75 -2.351562 6.359375 -2.59375 6.359375 -4.457031 C 6.359375 -5.578125 5.347656 -6.210938 3.875 -6.210938 C 1.875 -6.210938 0.488281 -4.980469 0.488281 -2.910156 C 0.488281 -1.207031 1.449219 0.121094 3.75 0.121094 Z M 2.09375 -3.398438 C 2.179688 -4.785156 2.644531 -5.589844 3.679688 -5.589844 C 4.445312 -5.589844 4.773438 -5.175781 4.773438 -4.445312 C 4.773438 -3.484375 3.800781 -2.996094 2.09375 -3.398438 Z M 2.09375 -3.398438 "/></g></g></g><g fill="#737373" fill-opacity="1"><g transform="translate(186.621031, 279.1646)"><g/></g></g><g fill="#737373" fill-opacity="1"><g transform="translate(189.202303, 279.1646)"><g><path d="M 4.300781 0.121094 C 6.113281 0.121094 7.6875 -0.402344 7.6875 -2.15625 C 7.6875 -3.921875 5.96875 -4.289062 4.203125 -4.882812 C 3.203125 -5.214844 2.351562 -5.503906 2.351562 -6.320312 C 2.351562 -7.089844 2.875 -7.539062 4.09375 -7.539062 C 5.480469 -7.539062 6.296875 -7.039062 5.675781 -5.53125 L 7.257812 -5.285156 C 7.894531 -7.417969 5.980469 -8.160156 4.082031 -8.160156 C 2.230469 -8.160156 0.765625 -7.539062 0.765625 -6.015625 C 0.765625 -4.421875 2.300781 -3.984375 3.859375 -3.445312 C 5.101562 -3.019531 6.101562 -2.839844 6.101562 -1.828125 C 6.101562 -1 5.613281 -0.5 4.324219 -0.5 C 2.851562 -0.5 1.546875 -0.949219 2.179688 -2.984375 L 0.597656 -3.226562 C -0.0351562 -0.585938 2.214844 0.121094 4.300781 0.121094 Z M 4.300781 0.121094 "/></g></g></g><g fill="#737373" fill-opacity="1"><g transform="translate(197.250509, 279.1646)"><g><path d="M 3.800781 0.121094 C 6.101562 0.121094 7.101562 -1.414062 7.101562 -3.046875 C 7.101562 -4.675781 6.101562 -6.210938 3.800781 -6.210938 C 1.484375 -6.210938 0.488281 -4.675781 0.488281 -3.046875 C 0.488281 -1.414062 1.484375 0.121094 3.800781 0.121094 Z M 4.09375 -0.511719 C 2.875 -0.390625 2.253906 -1.277344 2.082031 -2.875 C 1.914062 -4.46875 2.351562 -5.457031 3.496094 -5.578125 C 4.714844 -5.699219 5.335938 -4.8125 5.503906 -3.214844 C 5.675781 -1.621094 5.238281 -0.632812 4.09375 -0.511719 Z M 4.09375 -0.511719 "/></g></g></g><g fill="#737373" fill-opacity="1"><g transform="translate(204.83603, 279.1646)"><g><path d="M 0.488281 0 L 3.289062 0 L 3.289062 -0.378906 C 2.851562 -0.378906 2.679688 -0.632812 2.679688 -1.460938 L 2.679688 -7.6875 C 2.679688 -8.683594 2.253906 -8.769531 1.304688 -8.769531 L 0.488281 -8.769531 L 0.488281 -8.390625 C 0.925781 -8.390625 1.097656 -8.136719 1.097656 -7.308594 L 1.097656 -1.460938 C 1.097656 -0.632812 0.925781 -0.378906 0.488281 -0.378906 Z M 0.488281 0 "/></g></g></g><g fill="#737373" fill-opacity="1"><g transform="translate(208.488767, 279.1646)"><g><path d="M 3.179688 0.121094 C 4.496094 0.121094 5.175781 -0.644531 5.457031 -1.691406 L 5.554688 -1.691406 L 5.554688 -1.058594 C 5.554688 -0.0742188 5.980469 0 6.929688 0 L 7.746094 0 L 7.746094 -0.378906 C 7.320312 -0.378906 7.136719 -0.632812 7.136719 -1.460938 L 7.136719 -4.628906 C 7.136719 -5.457031 7.320312 -5.710938 7.746094 -5.710938 L 7.746094 -6.089844 L 4.945312 -6.089844 L 4.945312 -5.710938 C 5.382812 -5.710938 5.554688 -5.457031 5.554688 -4.628906 L 5.554688 -3.898438 C 5.554688 -2.230469 5.054688 -0.5 3.667969 -0.5 C 2.949219 -0.5 2.679688 -1.011719 2.679688 -1.816406 L 2.679688 -4.628906 C 2.679688 -5.457031 2.851562 -5.710938 3.289062 -5.710938 L 3.289062 -6.089844 L 0.488281 -6.089844 L 0.488281 -5.710938 C 0.925781 -5.710938 1.097656 -5.457031 1.097656 -4.628906 L 1.097656 -2.277344 C 1.097656 -0.695312 1.914062 0.121094 3.179688 0.121094 Z M 3.179688 0.121094 "/></g></g></g><g fill="#737373" fill-opacity="1"><g transform="translate(216.719609, 279.1646)"><g><path d="M 3.421875 0.121094 C 4.445312 0.121094 5.019531 -0.28125 5.199219 -1.011719 L 3.996094 -1.21875 C 3.96875 -0.695312 3.824219 -0.5 3.496094 -0.5 C 2.984375 -0.5 2.984375 -1.109375 2.984375 -2.007812 L 2.984375 -5.46875 L 4.191406 -5.46875 C 4.8125 -5.46875 4.8125 -5.675781 4.8125 -6.089844 L 2.984375 -6.089844 L 2.984375 -8.039062 L 1.863281 -8.039062 C 1.863281 -6.394531 1.484375 -6.175781 0.488281 -6.089844 L 0.488281 -5.46875 L 1.402344 -5.46875 L 1.402344 -1.828125 C 1.402344 -0.207031 2.421875 0.121094 3.421875 0.121094 Z M 3.421875 0.121094 "/></g></g></g><g fill="#737373" fill-opacity="1"><g transform="translate(222.283943, 279.1646)"><g><path d="M 1.753906 -6.808594 C 2.289062 -6.808594 2.59375 -7.089844 2.59375 -7.492188 C 2.59375 -7.867188 2.289062 -8.160156 1.753906 -8.160156 C 1.207031 -8.160156 0.902344 -7.867188 0.902344 -7.492188 C 0.902344 -7.089844 1.207031 -6.808594 1.753906 -6.808594 Z M 0.488281 0 L 3.289062 0 L 3.289062 -0.378906 C 2.851562 -0.378906 2.679688 -0.632812 2.679688 -1.460938 L 2.679688 -5.03125 C 2.679688 -6.015625 2.253906 -6.089844 1.304688 -6.089844 L 0.488281 -6.089844 L 0.488281 -5.710938 C 0.925781 -5.710938 1.097656 -5.457031 1.097656 -4.628906 L 1.097656 -1.460938 C 1.097656 -0.632812 0.925781 -0.378906 0.488281 -0.378906 Z M 0.488281 0 "/></g></g></g><g fill="#737373" fill-opacity="1"><g transform="translate(226.058445, 279.1646)"><g><path d="M 3.800781 0.121094 C 6.101562 0.121094 7.101562 -1.414062 7.101562 -3.046875 C 7.101562 -4.675781 6.101562 -6.210938 3.800781 -6.210938 C 1.484375 -6.210938 0.488281 -4.675781 0.488281 -3.046875 C 0.488281 -1.414062 1.484375 0.121094 3.800781 0.121094 Z M 4.09375 -0.511719 C 2.875 -0.390625 2.253906 -1.277344 2.082031 -2.875 C 1.914062 -4.46875 2.351562 -5.457031 3.496094 -5.578125 C 4.714844 -5.699219 5.335938 -4.8125 5.503906 -3.214844 C 5.675781 -1.621094 5.238281 -0.632812 4.09375 -0.511719 Z M 4.09375 -0.511719 "/></g></g></g><g fill="#737373" fill-opacity="1"><g transform="translate(233.643966, 279.1646)"><g><path d="M 0.488281 0 L 3.289062 0 L 3.289062 -0.378906 C 2.851562 -0.378906 2.679688 -0.632812 2.679688 -1.460938 L 2.679688 -2.191406 C 2.679688 -3.859375 3.179688 -5.589844 4.566406 -5.589844 C 5.296875 -5.589844 5.554688 -5.078125 5.554688 -4.273438 L 5.554688 -1.460938 C 5.554688 -0.632812 5.382812 -0.378906 4.945312 -0.378906 L 4.945312 0 L 7.746094 0 L 7.746094 -0.378906 C 7.320312 -0.378906 7.136719 -0.632812 7.136719 -1.460938 L 7.136719 -3.8125 C 7.136719 -5.394531 6.332031 -6.210938 5.066406 -6.210938 C 3.738281 -6.210938 3.058594 -5.445312 2.777344 -4.398438 L 2.679688 -4.398438 L 2.679688 -5.03125 C 2.679688 -6.015625 2.253906 -6.089844 1.304688 -6.089844 L 0.488281 -6.089844 L 0.488281 -5.710938 C 0.925781 -5.710938 1.097656 -5.457031 1.097656 -4.628906 L 1.097656 -1.460938 C 1.097656 -0.632812 0.925781 -0.378906 0.488281 -0.378906 Z M 0.488281 0 "/></g></g></g><g fill="#737373" fill-opacity="1"><g transform="translate(241.874808, 279.1646)"><g><path d="M 3.300781 0.121094 C 4.6875 0.121094 5.871094 -0.339844 5.871094 -1.707031 C 5.871094 -2.886719 4.738281 -3.253906 3.496094 -3.617188 C 2.4375 -3.933594 2.09375 -4.25 2.09375 -4.773438 C 2.09375 -5.238281 2.351562 -5.589844 3.082031 -5.589844 C 3.761719 -5.589844 4.386719 -5.296875 3.996094 -4.140625 L 5.578125 -3.898438 C 6.113281 -5.675781 4.59375 -6.210938 3.046875 -6.210938 C 1.609375 -6.210938 0.511719 -5.738281 0.511719 -4.578125 C 0.511719 -3.484375 1.4375 -3.105469 2.714844 -2.691406 C 3.570312 -2.421875 4.289062 -2.191406 4.289062 -1.449219 C 4.289062 -0.890625 3.996094 -0.5 3.191406 -0.5 C 2.242188 -0.5 1.546875 -0.878906 2.035156 -2.230469 L 0.449219 -2.472656 C -0.0351562 -0.414062 1.621094 0.121094 3.300781 0.121094 Z M 3.300781 0.121094 "/></g></g></g></svg>